<svg id="Слой_1" data-name="Слой 1" xmlns="http://www.w3.org/2000/svg" viewBox="0 0 738.65 86.6"><defs><style>.cls-1{fill:#39b54a;}</style></defs><title>Монтажная область 2</title><path class="cls-1" d="M1.57,69.18,70.75,0h0l7.57,7.57h0L9.13,76.75a5.34,5.34,0,0,1-7.56,0h0A5.35,5.35,0,0,1,1.57,69.18Z"/><path class="cls-1" d="M21.38,78l57-57h0l7.53,7.54h0L29.54,84.9a5.78,5.78,0,0,1-8.19,0h0a4.92,4.92,0,0,1,0-6.94Z"/><path class="cls-1" d="M56.29,77.19l39.59-39.6h0l7.57,7.57h0l-39.6,39.6a5.34,5.34,0,0,1-7.56,0h0a5.35,5.35,0,0,1,0-7.57Z"/><path class="cls-1" d="M95.32,68.44l19.89-19.9h0l7.57,7.57h0L102.89,76a5.35,5.35,0,0,1-7.57,0h0A5.34,5.34,0,0,1,95.32,68.44Z"/><path class="cls-1" d="M132.34,76.74,63.19,7.59h0L70.75,0h0l69.16,69.16a5.34,5.34,0,0,1,0,7.56h0A5.35,5.35,0,0,1,132.34,76.74Z"/><path class="cls-1" d="M163.58,24.84H185.5A26.39,26.39,0,0,1,196,26.6a17.08,17.08,0,0,1,6.59,5,20.93,20.93,0,0,1,3.78,7.65,35.66,35.66,0,0,1,1.17,9.25q0,7.65-1.74,11.87a19.76,19.76,0,0,1-4.84,7.06,15.79,15.79,0,0,1-6.64,3.8,34.42,34.42,0,0,1-8.79,1.3H163.58Zm14.75,10.81V61.74H182c3.08,0,5.27-.35,6.57-1a7,7,0,0,0,3.07-3.58c.72-1.71,1.09-4.48,1.1-8.29q0-7.59-2.47-10.39c-1.65-1.86-4.39-2.8-8.21-2.8Z"/><path class="cls-1" d="M215.23,24.84h39.53V35H230v7.59h23v9.72H230v9.41h25.46V72.56H215.23Z"/><path class="cls-1" d="M263.52,24.84h13.77l18,26.41V24.84h13.9V72.58h-13.9l-17.9-26.24V72.55H263.52Z"/><path class="cls-1" d="M319.56,24.84h14.78V72.58H319.56Z"/><path class="cls-1" d="M342.35,56.79l14-.88a10.74,10.74,0,0,0,1.85,5.21A7.81,7.81,0,0,0,364.72,64a7.23,7.23,0,0,0,4.87-1.48,4.25,4.25,0,0,0,.08-6.75Q368,54.31,362.11,53q-9.72-2.19-13.84-5.8A11.64,11.64,0,0,1,344.1,38a12.57,12.57,0,0,1,2.14-7,14.21,14.21,0,0,1,6.41-5.1Q356.94,24,364.39,24q9.15,0,14,3.4t5.71,10.83l-13.9.81a6.5,6.5,0,0,0-6.78-6.19l-.45,0A5.9,5.9,0,0,0,359.09,34a3.31,3.31,0,0,0-1.3,2.65,2.66,2.66,0,0,0,1.07,2.05c.7.63,2.36,1.21,5,1.76q9.67,2.09,13.86,4.22A14.52,14.52,0,0,1,383.81,50a13.5,13.5,0,0,1,1.9,7.07,15.06,15.06,0,0,1-2.54,8.46,15.8,15.8,0,0,1-7.1,5.88,28.59,28.59,0,0,1-11.49,2q-12.18,0-16.87-4.69A18.49,18.49,0,0,1,342.35,56.79Z"/><path class="cls-1" d="M415.36,24.84H443q6.91,0,10.6,3.42a11.07,11.07,0,0,1,3.7,8.47A10.75,10.75,0,0,1,454.63,44a11.86,11.86,0,0,1-5.14,3.19q5.14,1.23,7.57,4.25A11.67,11.67,0,0,1,459.48,59a13,13,0,0,1-1.72,6.68A12.77,12.77,0,0,1,453,70.36a15.62,15.62,0,0,1-5.6,1.57c-2.19.33-4.4.54-6.61.65H415.36Zm14.88,18.73h6.41c2.3,0,3.9-.4,4.8-1.19a4.36,4.36,0,0,0,1.35-3.44,4.11,4.11,0,0,0-1.35-3.26c-.9-.78-2.47-1.17-4.7-1.17h-6.52Zm0,18.75h7.52c2.54,0,4.34-.45,5.38-1.35a4.57,4.57,0,0,0,1.56-3.63,4.22,4.22,0,0,0-1.55-3.4c-1-.86-2.83-1.29-5.42-1.29h-7.49Z"/><path class="cls-1" d="M496.54,24.84h14.72V53.28a23.93,23.93,0,0,1-1.32,8,17.36,17.36,0,0,1-4.13,6.58,16.78,16.78,0,0,1-5.91,4,30,30,0,0,1-10.33,1.59A64.35,64.35,0,0,1,482,73,20.15,20.15,0,0,1,475.08,71,17.37,17.37,0,0,1,470,66.91a14.88,14.88,0,0,1-3.14-5.5,28,28,0,0,1-1.37-8.07V24.84h14.72V54a8.31,8.31,0,0,0,2.16,6.1,9.31,9.31,0,0,0,12,0,8.32,8.32,0,0,0,2.16-6.13Z"/><path class="cls-1" d="M521.65,24.84h14.79V72.58H521.65Z"/><path class="cls-1" d="M547,24.84h14.75v36h23V72.6H547Z"/><path class="cls-1" d="M591.65,24.84h21.91A26.39,26.39,0,0,1,624,26.6a17,17,0,0,1,6.6,5,20.91,20.91,0,0,1,3.77,7.65,35.24,35.24,0,0,1,1.18,9.25q0,7.65-1.75,11.87A19.61,19.61,0,0,1,629,67.43a15.79,15.79,0,0,1-6.64,3.8,34.49,34.49,0,0,1-8.8,1.3H591.65ZM606.4,35.65V61.74H610c3.09,0,5.28-.35,6.58-1a7,7,0,0,0,3.06-3.58c.74-1.71,1.11-4.48,1.11-8.29q0-7.59-2.47-10.39c-1.65-1.86-4.39-2.8-8.21-2.8Z"/><path class="cls-1" d="M643.3,24.84h39.54V35H658.09v7.59h23v9.72h-23v9.41h25.46V72.56H643.3Z"/><path class="cls-1" d="M691.65,72.58V24.84h24.59A35.78,35.78,0,0,1,726.69,26a11.22,11.22,0,0,1,5.87,4.33,13.47,13.47,0,0,1-3.36,18.75q-.37.27-.78.51a18.11,18.11,0,0,1-5.18,1.89,14.68,14.68,0,0,1,3.84,1.76,14.78,14.78,0,0,1,2.36,2.51,18.82,18.82,0,0,1,2.07,3l7.14,13.82H722L714.1,58a11.19,11.19,0,0,0-2.67-3.68,6.17,6.17,0,0,0-3.62-1.11h-1.3V72.58Zm14.82-28.4h6.22a22.48,22.48,0,0,0,3.91-.65A3.87,3.87,0,0,0,719,42a4.82,4.82,0,0,0-.54-6.31c-1-.83-2.81-1.24-5.5-1.24h-6.48Z"/></svg>