<svg xmlns="http://www.w3.org/2000/svg" viewBox="0 0 100 99.33"><defs><style>.cls-1{fill:none;stroke:#009245;stroke-linecap:round;stroke-linejoin:round;}.cls-2{fill:#009245;}</style></defs><title>call</title><g id="Слой_2" data-name="Слой 2"><path class="cls-1" d="M58.66,64.85s0,0,0,0v0Z"/><path class="cls-1" d="M57.47,38.79h0Z"/><path class="cls-1" d="M69,44.77c0,3.31-1.34,6-3,6a1.62,1.62,0,0,1-1-.33c-.47,5.13-2,10.71-6,13.93h0v0a13,13,0,0,1-8.87,2.69,14.09,14.09,0,0,1-8.42-2.71c-4.39-3.33-6-9.18-6.46-14.45a1.53,1.53,0,0,1-1.2.86c-1.29,0-2.34-2.67-2.34-6s1.05-6,2.34-6c.53,0,1,.45,1.41,1.22.09-.78.17-1.22.17-1.22h29s0,.23.09.53a1.79,1.79,0,0,1,1.17-.53h.14C67.68,38.87,69,41.52,69,44.77Z"/><path class="cls-1" d="M50.42,38.8h0Z"/><path class="cls-1" d="M49.77,75.05V89.92H42.39l-5.54-4.87L40,79.17l-6.33-2L36,67.73c3.08-2,5.33-3.39,5.33-3.39C40.31,73.13,49.77,75.05,49.77,75.05Z"/><path class="cls-1" d="M60,79.16,63.14,85,57.6,89.91H49.77V75s9.9-1.42,8.87-10.19h0A41.27,41.27,0,0,1,64,67.72l2.33,9.4Z"/><path class="cls-1" d="M42.39,89.92H19v-9C19,79,29.41,72,36,67.73l-2.33,9.4,6.33,2-3.17,5.88Z"/><path class="cls-1" d="M58.66,64.85s0,0,0,0v.48S58.65,64.84,58.66,64.85Z"/><path class="cls-1" d="M81,80.91v9H57.6L63.14,85,60,79.16l6.33-2L64,67.72C70.59,72,81,79,81,80.91Z"/><path class="cls-1" d="M68.86,32.42s3-19-14.67-19v-4H46.52v4c-17.63,0-14.67,19-14.67,19-5.66,0-5.33,6.37-5.33,6.37H74.19S74.52,32.42,68.86,32.42Z"/><circle class="cls-1" cx="42.39" cy="44.67" r="1.15"/><circle class="cls-1" cx="57.15" cy="44.67" r="1.15"/><ellipse class="cls-1" cx="65.92" cy="45.09" rx="0.39" ry="1.57"/><path class="cls-1" d="M65.92,45.09c-1.78,8.77-7.65,16.41-13,16.41"/><ellipse class="cls-2" cx="51.98" cy="61.35" rx="1.95" ry="1.19"/><line class="cls-1" x1="46.52" y1="13.42" x2="46.52" y2="19.46"/><line class="cls-1" x1="54.19" y1="13.42" x2="54.19" y2="19.46"/></g></svg>