<svg xmlns="http://www.w3.org/2000/svg" viewBox="0 0 100 100"><defs><style>.cls-1{fill:none;stroke:#009245;stroke-linecap:round;stroke-linejoin:round;stroke-width:3px;}</style></defs><title>valik</title><g id="Слой_2" data-name="Слой 2"><path class="cls-1" d="M30.13,62.18h0c2.36,3.15,4.81,5.29,8,2.93L64.21,45.5c3.15-2.36,1.78-5.31-.59-8.46h0c-2.36-3.14-4.81-5.29-7.95-2.93L29.54,53.72C26.39,56.08,27.77,59,30.13,62.18Z"/><polyline class="cls-1" points="63.37 36.71 68.73 32.68 77.96 56.14 59.87 69.71 61.38 71.72"/><path class="cls-1" d="M67.24,72.56l7,9.38a4.19,4.19,0,0,1-6.7,5l-7-9.38a4.19,4.19,0,1,1,6.7-5Z"/><line class="cls-1" x1="17.3" y1="36.72" x2="25.85" y2="48.11"/><line class="cls-1" x1="17.31" y1="19.65" x2="33.9" y2="41.76"/><line class="cls-1" x1="32.21" y1="20.3" x2="43.27" y2="35.04"/><line class="cls-1" x1="37.4" y1="9.41" x2="52.99" y2="30.18"/></g></svg>