<svg xmlns="http://www.w3.org/2000/svg" viewBox="0 0 100 100"><defs><style>.cls-1{fill:none;stroke:#009245;stroke-linecap:round;stroke-linejoin:round;stroke-width:3px;}</style></defs><title>Wall</title><g id="Слой_2" data-name="Слой 2"><rect class="cls-1" x="23.7" y="24.3" width="25.88" height="10.35"/><polygon class="cls-1" points="62.53 35.95 62.53 46.3 47.84 46.3 52.13 42.45 45.37 42.77 45.74 36.01 41.19 41.02 36.67 35.99 36.99 42.76 36.65 42.74 36.65 35.95 62.53 35.95"/><polygon class="cls-1" points="36.65 42.74 30.24 42.38 34.55 46.3 10.76 46.3 10.76 35.95 36.65 35.95 36.65 42.74"/><polygon class="cls-1" points="30.21 51.45 36.98 51.13 36.67 56.66 23.7 56.66 23.7 46.3 34.55 46.3 35.25 46.94 30.21 51.45"/><polygon class="cls-1" points="41.16 52.88 44.55 56.66 37.72 56.66 41.16 52.88"/><polygon class="cls-1" points="49.59 46.3 49.59 49.23 47.1 46.96 47.84 46.3 49.59 46.3"/><polygon class="cls-1" points="45.35 51.14 49.59 51.38 49.59 56.66 45.61 56.66 45.35 51.14"/><rect class="cls-1" x="36.64" y="57.95" width="25.88" height="10.35"/><polygon class="cls-1" points="75.47 46.3 75.47 56.66 49.59 56.66 49.59 51.38 52.11 51.52 49.59 49.23 49.59 46.3 75.47 46.3"/><rect class="cls-1" x="62.53" y="35.95" width="25.88" height="10.35"/><rect class="cls-1" x="10.76" y="57.95" width="25.88" height="10.35"/></g></svg>