<svg id="Слой_1" data-name="Слой 1" xmlns="http://www.w3.org/2000/svg" viewBox="0 0 245 151.33"><defs><style>.cls-1{fill:#39b54a;}</style></defs><title>pre_load</title><path class="cls-1" d="M-12.34,62H154.44a0,0,0,0,1,0,0V80.24a0,0,0,0,1,0,0H-12.34a9.13,9.13,0,0,1-9.13-9.13v0A9.13,9.13,0,0,1-12.34,62Z" transform="translate(-30.81 67.84) rotate(-45)"/><path class="cls-1" d="M25.66,87.14H163a0,0,0,0,1,0,0V105.4a0,0,0,0,1,0,0H27.15a9.87,9.87,0,0,1-9.87-9.87v0a8.38,8.38,0,0,1,8.38-8.38Z" transform="translate(-41.67 91.94) rotate(-45)"/><path class="cls-1" d="M91.48,100.84H186.9a0,0,0,0,1,0,0v18.25a0,0,0,0,1,0,0H91.48A9.13,9.13,0,0,1,82.35,110v0a9.13,9.13,0,0,1,9.13-9.13Z" transform="translate(-38.33 127.4) rotate(-45)"/><path class="cls-1" d="M164.94,102.73h48a0,0,0,0,1,0,0V121a0,0,0,0,1,0,0h-48a9.13,9.13,0,0,1-9.13-9.13v0A9.13,9.13,0,0,1,164.94,102.73Z" transform="translate(-25.09 163.13) rotate(-45)"/><path class="cls-1" d="M99.22,62H266a0,0,0,0,1,0,0V80.24a0,0,0,0,1,0,0H99.22a9.13,9.13,0,0,1-9.13-9.13v0A9.13,9.13,0,0,1,99.22,62Z" transform="translate(253.66 247.29) rotate(-135)"/></svg>