<svg xmlns="http://www.w3.org/2000/svg" viewBox="0 0 100 100"><defs><style>.cls-1{fill:none;stroke:#009245;stroke-linecap:round;stroke-linejoin:round;stroke-width:3px;}</style></defs><title>water</title><g id="Слой_2" data-name="Слой 2"><path class="cls-1" d="M33.39,25.61a.86.86,0,0,0,.38.71.82.82,0,0,1,.39.69.86.86,0,0,1-1,.86H33a.85.85,0,0,0-.7,1.33.8.8,0,0,1,.15.48.86.86,0,0,1-1.35.71.86.86,0,0,0-.48-.14.85.85,0,0,0-.83,1,1.28,1.28,0,0,1,0,.19.86.86,0,0,1-1.58.45.86.86,0,0,0-1.55.31.86.86,0,0,1-1.69,0,.86.86,0,0,0-1.55-.31.81.81,0,0,1-.71.39.86.86,0,0,1-.85-1,1.1,1.1,0,0,0,0-.18.86.86,0,0,0-1.34-.71.84.84,0,0,1-.48.16.86.86,0,0,1-.71-1.35.9.9,0,0,0,.15-.48.86.86,0,0,0-1-.84.65.65,0,0,1-.19,0,.86.86,0,0,1-.46-1.57.84.84,0,0,0,.39-.71.86.86,0,0,0-.69-.86.85.85,0,0,1,0-1.68.85.85,0,0,0,.69-.84.81.81,0,0,0-.39-.71.82.82,0,0,1-.38-.7.85.85,0,0,1,1-.86l.18,0a.86.86,0,0,0,.7-1.34.84.84,0,0,1-.16-.48.87.87,0,0,1,1.35-.71.87.87,0,0,0,.48.15.86.86,0,0,0,.84-1,1.28,1.28,0,0,1,0-.19.86.86,0,0,1,1.57-.46.82.82,0,0,0,.71.39.84.84,0,0,0,.84-.7.86.86,0,0,1,1.69,0,.85.85,0,0,0,1.55.31.83.83,0,0,1,.71-.38.85.85,0,0,1,.86,1,.65.65,0,0,0,0,.19.85.85,0,0,0,1.33.69.85.85,0,0,1,.49-.15.86.86,0,0,1,.71,1.34.8.8,0,0,0-.15.48.85.85,0,0,0,1,.84.65.65,0,0,1,.19,0,.86.86,0,0,1,.45,1.58.82.82,0,0,0-.38.71.85.85,0,0,0,.69.84.85.85,0,0,1,0,1.68A.86.86,0,0,0,33.39,25.61Z"/><path class="cls-1" d="M81.83,25.61a.84.84,0,0,0,.39.71.81.81,0,0,1,.38.69.85.85,0,0,1-1,.86h-.18a.85.85,0,0,0-.7,1.33.81.81,0,0,1,.16.48.87.87,0,0,1-1.35.71.86.86,0,0,0-1.32.89,1.28,1.28,0,0,1,0,.19.85.85,0,0,1-1.57.45.86.86,0,0,0-1.55.31.86.86,0,0,1-1.69,0,.86.86,0,0,0-1.55-.31.82.82,0,0,1-.71.39.86.86,0,0,1-.86-1,.65.65,0,0,0,0-.19.86.86,0,0,0-1.33-.7.86.86,0,0,1-1.2-1.19.81.81,0,0,0,.15-.47.86.86,0,0,0-1-.85.65.65,0,0,1-.19,0,.86.86,0,0,1-.45-1.57.87.87,0,0,0-.31-1.57.85.85,0,0,1,0-1.68.85.85,0,0,0,.69-.84.82.82,0,0,0-.38-.71.83.83,0,0,1-.39-.7.86.86,0,0,1,1-.86l.18,0a.86.86,0,0,0,.7-1.34.84.84,0,0,1-.15-.48A.87.87,0,0,1,69,17.45a.87.87,0,0,0,.48.15.85.85,0,0,0,.83-1,1.28,1.28,0,0,1,0-.19.86.86,0,0,1,1.58-.46.82.82,0,0,0,.71.39.84.84,0,0,0,.84-.7.86.86,0,0,1,1.69,0,.85.85,0,0,0,1.55.31.83.83,0,0,1,.71-.38.85.85,0,0,1,.85,1,1.1,1.1,0,0,0,0,.18.86.86,0,0,0,1.34.7A.84.84,0,0,1,80,17.3a.86.86,0,0,1,.71,1.34.87.87,0,0,0-.15.48.85.85,0,0,0,1,.84.65.65,0,0,1,.19,0,.86.86,0,0,1,.46,1.58.81.81,0,0,0-.39.71.85.85,0,0,0,.69.84.85.85,0,0,1,0,1.68A.86.86,0,0,0,81.83,25.61Z"/><path class="cls-1" d="M66.6,26.16a1,1,0,0,1-.45.83H51.92V54.48H39.87V58.8H27V53.24h1.31a4.77,4.77,0,0,1-.06-.76,5.31,5.31,0,0,1,5.31-5.31,5.21,5.21,0,0,1,4,1.81h8.89V27H33.35a1,1,0,0,1,.36-1.82,1,1,0,0,0,0-2,1,1,0,0,1-.81-1,1,1,0,0,1,.45-.83h32.8a1,1,0,0,1,.45.83,1,1,0,0,1-.81,1,1,1,0,0,0,0,2A1,1,0,0,1,66.6,26.16Z"/><line class="cls-1" x1="33.25" y1="62.83" x2="33.25" y2="85.08"/><line class="cls-1" x1="28.75" y1="63.83" x2="28.75" y2="74.96"/><line class="cls-1" x1="38.08" y1="67.94" x2="38.08" y2="82.46"/></g></svg>